<?xml version="1.0" encoding="utf-8"?>
<!-- Generator: Adobe Illustrator 23.0.6, SVG Export Plug-In . SVG Version: 6.00 Build 0)  -->
<svg version="1.1" id="Слой_1" xmlns="http://www.w3.org/2000/svg" xmlns:xlink="http://www.w3.org/1999/xlink" x="0px" y="0px"
	 viewBox="0 0 18 20" style="enable-background:new 0 0 18 20;" xml:space="preserve">
<style type="text/css">
	.st0{fill-rule:evenodd;clip-rule:evenodd;}
</style>
<title>utilities</title>
<desc>Created with Sketch.</desc>
<g>
	<path class="st0" d="M14,10v1h-2v-1H6v1H4v-1H0v3.5C0,14.9,1.1,16,2.5,16h13c1.4,0,2.5-1.1,2.5-2.5V10H14z M4,8V7h2v1h6V7h2v1h4
		V6.5C18,5.1,16.9,4,15.5,4H13V2.5C13,1.1,11.9,0,10.5,0h-3C6.1,0,5,1.1,5,2.5V4H2.5C1.1,4,0,5.1,0,6.5V8H4z M7,2.5
		C7,2.2,7.2,2,7.5,2h3C10.8,2,11,2.2,11,2.5V4H7V2.5z"/>
</g>
</svg>
